<svg xmlns="http://www.w3.org/2000/svg" width="15.969" height="15.16" viewBox="0 0 15.969 15.16">
  <defs>
    <style>
      .cls-1 {
        fill: #fff;
        fill-rule: evenodd;
      }
    </style>
  </defs>
  <path id="Google_Plus_Logo" data-name="Google Plus Logo" class="cls-1" d="M373.585,1990.78a3.007,3.007,0,0,0,1.322,2.76,3.834,3.834,0,0,0,1.986.51h0.248a2.386,2.386,0,0,0,.526,1.71h-0.03c-1.15,0-4.9.24-4.9,3.21,0,3.03,3.445,3.19,4.136,3.19H377.1a6.608,6.608,0,0,0,2.655-.56,3.414,3.414,0,0,0,2.081-3.34,4.082,4.082,0,0,0-1.846-3.09,1.985,1.985,0,0,1-.887-1.09,1.448,1.448,0,0,1,.68-0.93,3.272,3.272,0,0,0,1.194-2.71c0-1.26-.169-2.1-1.207-2.63a2.964,2.964,0,0,1,.68-0.12c0.563-.08,1.386-0.16,1.386-0.6V1987h-4.1C377.692,1987,373.585,1987.15,373.585,1990.78Zm6.622,7.76c0.078,1.21-1,2.11-2.606,2.22-1.637.12-2.984-.6-3.063-1.81a1.958,1.958,0,0,1,.745-1.6,3.491,3.491,0,0,1,2.033-.8,2.555,2.555,0,0,1,.276-0.01A2.348,2.348,0,0,1,380.207,1998.54Zm-1.071-8.59c0.4,1.37-.206,2.8-1.174,3.06a1.314,1.314,0,0,1-.343.04,2.511,2.511,0,0,1-2.092-2.06,2.88,2.88,0,0,1,.042-1.82,1.6,1.6,0,0,1,1.037-1.05,1.323,1.323,0,0,1,.343-0.05C378.02,1988.07,378.709,1988.5,379.136,1989.95Zm6.911,2.98v-2.59h-1.7v2.59h-2.676v1.63h2.676v2.59h1.7v-2.59h2.677v-1.63h-2.677Z" transform="translate(-372.75 -1987)"/>
</svg>
