<svg xmlns="http://www.w3.org/2000/svg" width="14" height="14" viewBox="0 0 14 14">
  <defs>
    <style>
      .cls-1 {
        fill: #fff;
        fill-rule: evenodd;
      }
    </style>
  </defs>
  <path id="fa-linkedin" class="cls-1" d="M408.181,1990.55h-3.008V2000h3.008v-9.45Zm0.191-2.92a1.687,1.687,0,1,0-1.713,1.63h0.018A1.586,1.586,0,0,0,408.372,1987.63ZM419,1994.58c0-2.9-1.477-4.25-3.454-4.25a2.958,2.958,0,0,0-2.726,1.59h0.018v-1.37h-3s0.036,0.89,0,9.45h3v-5.27a2.5,2.5,0,0,1,.1-0.78,1.652,1.652,0,0,1,1.54-1.14c1.085,0,1.522.87,1.522,2.14V2000h3v-5.42Z" transform="translate(-405 -1986)"/>
</svg>
