<svg xmlns="http://www.w3.org/2000/svg" width="15.968" height="12.63" viewBox="0 0 15.968 12.63">
  <defs>
    <style>
      .cls-1 {
        fill: #fff;
        fill-rule: evenodd;
      }
    </style>
  </defs>
  <path id="Twitter_Logo_Silhouette" data-name="Twitter Logo Silhouette" class="cls-1" d="M357.969,1989.07a6.511,6.511,0,0,1-2.084.78,3.319,3.319,0,0,0-2.393-1.01,3.237,3.237,0,0,0-3.28,3.19,3.181,3.181,0,0,0,.085.73,9.433,9.433,0,0,1-6.76-3.34,3.138,3.138,0,0,0,1.015,4.26,3.368,3.368,0,0,1-1.485-.4v0.04a3.212,3.212,0,0,0,2.63,3.13,3.5,3.5,0,0,1-.864.11,3.159,3.159,0,0,1-.618-0.06,3.28,3.28,0,0,0,3.063,2.22,6.9,6.9,0,0,1-4.855,1.32,9.518,9.518,0,0,0,5.028,1.43,9.133,9.133,0,0,0,9.331-9.07l-0.011-.42a6.326,6.326,0,0,0,1.639-1.64,6.917,6.917,0,0,1-1.883.5A3.233,3.233,0,0,0,357.969,1989.07Z" transform="translate(-342.438 -1988.84)"/>
</svg>
